<svg width="731" height="848" viewBox="0 0 731 848" fill="none" xmlns="http://www.w3.org/2000/svg">
<g id="Group 2">
<circle id="Ellipse 1" cx="443" cy="699" r="149" fill="url(#paint0_radial_8_6)"/>
<circle id="Ellipse 2" cx="200.5" cy="107.5" r="106.5" fill="url(#paint1_radial_8_6)"/>
<circle id="Ellipse 3" cx="624.5" cy="137.5" r="106.5" fill="url(#paint2_radial_8_6)"/>
<g id="Group 1">
<g id="Rectangle 2" filter="url(#filter0_b_8_6)">
<rect x="279.765" y="0.859051" width="412" height="660" rx="40" transform="rotate(25 279.765 0.859051)" fill="url(#paint3_linear_8_6)"/>
<rect x="279.039" y="-1.13434" width="415" height="663" rx="41.5" transform="rotate(25 279.039 -1.13434)" stroke="url(#paint4_radial_8_6)" stroke-width="3"/>
<rect x="279.039" y="-1.13434" width="415" height="663" rx="41.5" transform="rotate(25 279.039 -1.13434)" stroke="url(#paint5_radial_8_6)" stroke-width="3"/>
<rect x="279.039" y="-1.13434" width="415" height="663" rx="41.5" transform="rotate(25 279.039 -1.13434)" stroke="url(#paint6_radial_8_6)" stroke-width="3"/>
</g>
<g id="5678 9743 6765 9338" filter="url(#filter1_d_8_6)">
<path d="M173.278 376.765C173.008 377.343 172.566 377.744 171.952 377.968C171.368 378.181 170.786 378.152 170.208 377.883L163.927 374.954C163.349 374.684 162.944 374.252 162.711 373.658C162.507 373.054 162.54 372.462 162.81 371.884L163.786 369.79L166.179 370.906L165.203 373L170.885 375.65L173.674 369.668L165.599 365.902L168.667 359.323L179.135 364.204L178.159 366.297L169.785 362.392L168.669 364.785L174.95 367.714C175.528 367.983 175.919 368.421 176.122 369.025C176.355 369.619 176.337 370.205 176.067 370.784L173.278 376.765ZM189.115 384.15C188.845 384.729 188.404 385.129 187.79 385.353C187.205 385.566 186.624 385.537 186.045 385.268L179.465 382.199C178.887 381.93 178.482 381.498 178.249 380.904C178.045 380.299 178.079 379.708 178.348 379.13L183.229 368.662C183.499 368.084 183.926 367.688 184.511 367.475C185.125 367.252 185.721 367.275 186.299 367.544L194.674 371.449L193.697 373.543L185.622 369.777L183.809 373.666L190.09 376.594C190.668 376.864 191.059 377.301 191.262 377.906C191.495 378.5 191.477 379.086 191.207 379.664L189.115 384.15ZM186.722 383.035L188.814 378.548L182.833 375.759L180.741 380.245L186.722 383.035ZM206.572 386.501L196.499 390.142L193.448 388.72L204.514 384.668L206.843 379.673L201.16 377.023L200.184 379.117L197.791 378.001L199.744 373.814L210.212 378.695L206.572 386.501ZM220.192 398.642C219.922 399.22 219.48 399.621 218.866 399.844C218.281 400.057 217.7 400.028 217.122 399.759L210.243 396.551C209.665 396.282 209.259 395.85 209.026 395.256C208.823 394.651 208.856 394.06 209.126 393.481L211.217 388.995C211.45 388.497 211.805 388.152 212.282 387.962C212.779 387.781 213.296 387.816 213.835 388.067L215.801 383.85C216.071 383.272 216.458 382.858 216.963 382.608C217.477 382.338 218.014 382.333 218.572 382.593L222.46 384.407C223.018 384.667 223.359 385.081 223.483 385.648C223.616 386.196 223.548 386.759 223.278 387.337L221.312 391.554C221.85 391.805 222.2 392.174 222.361 392.662C222.551 393.139 222.525 393.637 222.284 394.155L220.192 398.642ZM219.382 390.618L221.334 386.43L217.745 384.757L215.793 388.944L219.382 390.618ZM217.799 397.526L219.891 393.04L213.61 390.111L211.518 394.597L217.799 397.526ZM241.071 395.634C241.341 395.056 241.768 394.66 242.353 394.447C242.967 394.224 243.563 394.247 244.141 394.517L250.721 397.585C251.299 397.854 251.69 398.292 251.894 398.896C252.126 399.49 252.108 400.076 251.838 400.655L246.957 411.122C246.687 411.701 246.246 412.102 245.632 412.325C245.047 412.538 244.465 412.509 243.887 412.24L235.513 408.335L236.489 406.241L244.564 410.007L246.377 406.119L240.097 403.19C239.518 402.92 239.113 402.488 238.88 401.894C238.677 401.29 238.71 400.698 238.979 400.12L241.071 395.634ZM243.464 396.75L241.372 401.236L247.354 404.025L249.446 399.539L243.464 396.75ZM265.161 413.822L255.089 417.463L252.038 416.041L263.103 411.988L265.432 406.994L259.75 404.344L258.774 406.437L256.381 405.322L258.334 401.135L268.801 406.016L265.161 413.822ZM284.639 413.401L271.977 417.91L271.084 419.824L277.066 422.614L279.437 417.529L282.945 416.252L277.506 427.916L275.113 426.801L276.089 424.707L268.014 420.942L269.911 416.874C270.023 416.635 270.111 416.445 270.176 416.306C270.261 416.176 270.347 416.07 270.433 415.989C270.529 415.888 270.635 415.816 270.752 415.773C270.878 415.711 271.034 415.638 271.218 415.554L281.289 411.839L284.639 413.401ZM294.02 433.068C293.751 433.647 293.309 434.047 292.695 434.271C292.11 434.484 291.529 434.455 290.95 434.186L284.67 431.257C284.092 430.987 283.686 430.556 283.453 429.962C283.25 429.357 283.283 428.765 283.552 428.187L284.529 426.094L286.921 427.209L285.945 429.303L291.628 431.953L293.58 427.766L289.692 425.953L290.501 424.218L296.669 421.923L296.808 421.624L288.434 417.719L289.41 415.626L299.878 420.507L298.469 423.528L293.689 425.268L293.55 425.567C293.559 425.547 293.673 425.588 293.893 425.69C293.992 425.737 294.112 425.792 294.251 425.857C294.391 425.923 294.546 426.007 294.716 426.111C295.285 426.4 295.671 426.847 295.875 427.452C296.107 428.046 296.094 428.622 295.833 429.18L294.02 433.068ZM321.833 446.037C321.563 446.616 321.121 447.017 320.507 447.24C319.922 447.453 319.341 447.424 318.763 447.155L312.183 444.087C311.605 443.817 311.199 443.385 310.966 442.791C310.763 442.186 310.796 441.595 311.066 441.017L315.947 430.549C316.217 429.971 316.644 429.575 317.228 429.362C317.842 429.139 318.438 429.162 319.017 429.432L327.391 433.337L326.415 435.43L318.34 431.665L316.526 435.553L322.807 438.481C323.385 438.751 323.776 439.188 323.98 439.793C324.213 440.387 324.194 440.973 323.925 441.551L321.833 446.037ZM319.44 444.922L321.532 440.436L315.55 437.646L313.458 442.133L319.44 444.922ZM339.289 448.388L329.217 452.03L326.166 450.607L337.231 446.555L339.56 441.56L333.878 438.91L332.902 441.004L330.509 439.888L332.461 435.701L342.929 440.582L339.289 448.388ZM352.909 460.529C352.639 461.107 352.198 461.508 351.584 461.731C350.999 461.944 350.417 461.916 349.839 461.646L343.259 458.578C342.681 458.308 342.276 457.876 342.043 457.282C341.839 456.678 341.872 456.086 342.142 455.508L347.023 445.04C347.293 444.462 347.72 444.066 348.305 443.854C348.919 443.63 349.515 443.653 350.093 443.923L358.467 447.828L357.491 449.921L349.416 446.156L347.603 450.044L353.884 452.973C354.462 453.242 354.853 453.679 355.056 454.284C355.289 454.878 355.271 455.464 355.001 456.042L352.909 460.529ZM350.516 459.413L352.608 454.927L346.627 452.137L344.535 456.624L350.516 459.413ZM368.148 467.635C367.879 468.213 367.437 468.614 366.823 468.837C366.238 469.05 365.657 469.022 365.078 468.752L358.798 465.823C358.219 465.554 357.814 465.122 357.581 464.528C357.378 463.923 357.411 463.332 357.68 462.754L358.657 460.66L361.049 461.776L360.073 463.869L365.756 466.519L368.545 460.537L360.47 456.772L363.538 450.192L374.006 455.073L373.029 457.167L364.655 453.262L363.539 455.655L369.82 458.583C370.398 458.853 370.789 459.29 370.993 459.895C371.226 460.489 371.207 461.075 370.937 461.653L368.148 467.635ZM389.327 464.767C389.597 464.188 390.024 463.793 390.609 463.58C391.223 463.357 391.819 463.38 392.397 463.649L398.977 466.718C399.555 466.987 399.946 467.424 400.149 468.029C400.382 468.623 400.364 469.209 400.094 469.787L395.213 480.255C394.943 480.833 394.501 481.234 393.887 481.458C393.303 481.671 392.721 481.642 392.143 481.373L383.769 477.468L384.745 475.374L392.82 479.14L394.633 475.251L388.352 472.323C387.774 472.053 387.369 471.621 387.136 471.027C386.932 470.423 386.965 469.831 387.235 469.253L389.327 464.767ZM391.72 465.882L389.628 470.369L395.609 473.158L397.701 468.672L391.72 465.882ZM411.2 487.71C410.93 488.288 410.488 488.689 409.874 488.913C409.289 489.125 408.708 489.097 408.13 488.827L401.849 485.899C401.271 485.629 400.865 485.197 400.633 484.603C400.429 483.998 400.462 483.407 400.732 482.829L401.708 480.735L404.101 481.851L403.124 483.944L408.807 486.594L410.759 482.407L406.871 480.594L407.68 478.859L413.848 476.565L413.987 476.266L405.613 472.361L406.589 470.267L417.057 475.149L415.648 478.169L410.868 479.909L410.729 480.208C410.738 480.188 410.852 480.229 411.072 480.332C411.171 480.378 411.291 480.434 411.431 480.499C411.57 480.564 411.725 480.649 411.895 480.752C412.464 481.042 412.85 481.489 413.054 482.093C413.287 482.688 413.273 483.264 413.013 483.822L411.2 487.71ZM426.738 494.956C426.468 495.534 426.026 495.935 425.412 496.158C424.828 496.371 424.246 496.343 423.668 496.073L417.387 493.144C416.809 492.875 416.404 492.443 416.171 491.849C415.967 491.244 416 490.653 416.27 490.074L417.246 487.981L419.639 489.096L418.663 491.19L424.345 493.84L426.298 489.653L422.41 487.84L423.218 486.105L429.386 483.811L429.525 483.511L421.151 479.606L422.127 477.513L432.595 482.394L431.187 485.415L426.407 487.155L426.267 487.454C426.276 487.434 426.391 487.475 426.61 487.577C426.71 487.624 426.829 487.68 426.969 487.745C427.108 487.81 427.263 487.894 427.433 487.998C428.002 488.287 428.389 488.734 428.592 489.339C428.825 489.933 428.811 490.509 428.551 491.068L426.738 494.956ZM442.575 502.341C442.305 502.919 441.864 503.32 441.25 503.543C440.665 503.756 440.083 503.728 439.505 503.458L432.626 500.25C432.048 499.981 431.643 499.549 431.41 498.955C431.206 498.35 431.239 497.759 431.509 497.18L433.601 492.694C433.833 492.196 434.188 491.851 434.665 491.661C435.162 491.48 435.68 491.515 436.218 491.766L438.185 487.549C438.454 486.971 438.842 486.557 439.347 486.307C439.861 486.037 440.397 486.032 440.956 486.293L444.844 488.106C445.402 488.366 445.743 488.78 445.867 489.347C446 489.895 445.931 490.458 445.662 491.036L443.695 495.253C444.234 495.504 444.583 495.873 444.744 496.361C444.935 496.838 444.909 497.336 444.667 497.854L442.575 502.341ZM441.765 494.317L443.718 490.129L440.129 488.456L438.176 492.643L441.765 494.317ZM440.182 501.225L442.274 496.739L435.994 493.81L433.902 498.296L440.182 501.225Z" fill="url(#paint7_linear_8_6)" shape-rendering="crispEdges"/>
</g>
<g id="Samuel Rodriguez" filter="url(#filter2_d_8_6)">
<path d="M190.768 323.805C189.515 323.221 188.376 322.487 187.353 321.606C186.352 320.716 185.623 319.834 185.167 318.959L187.702 316.776C188.149 317.591 188.771 318.368 189.566 319.107C190.362 319.846 191.228 320.434 192.165 320.87C193.207 321.356 194.048 321.564 194.687 321.495C195.333 321.41 195.776 321.111 196.016 320.597C196.192 320.22 196.185 319.84 195.996 319.457C195.829 319.066 195.546 318.686 195.148 318.317C194.766 317.955 194.224 317.5 193.523 316.952C192.448 316.102 191.593 315.353 190.956 314.707C190.32 314.061 189.87 313.29 189.607 312.395C189.359 311.507 189.481 310.535 189.974 309.477C190.404 308.556 191.041 307.841 191.884 307.333C192.735 306.811 193.761 306.563 194.962 306.589C196.178 306.623 197.512 306.978 198.962 307.655C199.974 308.127 200.907 308.709 201.761 309.401C202.615 310.094 203.299 310.836 203.812 311.627L201.38 313.885C200.302 312.371 199.031 311.273 197.565 310.59C196.538 310.111 195.698 309.921 195.045 310.021C194.406 310.128 193.96 310.453 193.707 310.997C193.453 311.541 193.542 312.079 193.975 312.611C194.429 313.136 195.178 313.798 196.221 314.597C197.296 315.447 198.151 316.196 198.788 316.842C199.424 317.488 199.87 318.248 200.125 319.12C200.395 320 200.284 320.969 199.79 322.026C199.368 322.933 198.724 323.644 197.858 324.16C197.014 324.667 195.984 324.904 194.768 324.87C193.552 324.836 192.219 324.481 190.768 323.805ZM210.116 317.435C212.004 318.315 213.243 319.445 213.832 320.823C214.429 322.186 214.304 323.774 213.459 325.586L210.215 332.542L206.907 331L207.615 329.482C206.422 330.305 204.92 330.294 203.107 329.448C202.17 329.012 201.429 328.473 200.882 327.831C200.35 327.197 200.033 326.516 199.931 325.788C199.829 325.06 199.944 324.341 200.275 323.632C200.803 322.499 201.642 321.805 202.79 321.55C203.954 321.302 205.427 321.593 207.21 322.424L210.019 323.734C210.379 322.964 210.419 322.266 210.141 321.64C209.87 320.998 209.266 320.459 208.33 320.023C207.68 319.72 206.989 319.526 206.256 319.442C205.545 319.349 204.89 319.375 204.29 319.518L204.172 316.456C205.055 316.298 206.017 316.305 207.059 316.478C208.115 316.658 209.134 316.977 210.116 317.435ZM205.1 327.481C205.704 327.763 206.304 327.877 206.899 327.824C207.501 327.755 208.027 327.495 208.477 327.042L209.058 325.796L206.634 324.666C205.183 323.99 204.237 324.127 203.793 325.079C203.582 325.532 203.586 325.976 203.807 326.409C204.05 326.835 204.481 327.193 205.1 327.481ZM234.341 328.731C235.867 329.443 236.864 330.459 237.332 331.781C237.823 333.095 237.649 334.651 236.811 336.448L233.557 343.427L230.022 341.779L233.023 335.344C233.474 334.377 233.604 333.565 233.415 332.906C233.248 332.24 232.794 331.734 232.054 331.389C231.223 331.001 230.439 330.967 229.702 331.285C228.972 331.588 228.361 332.269 227.868 333.326L225.015 339.444L221.48 337.795L224.481 331.361C225.376 329.442 225.053 328.124 223.512 327.405C222.696 327.025 221.92 326.994 221.183 327.312C220.453 327.616 219.841 328.296 219.348 329.353L216.496 335.471L212.961 333.823L218.645 321.633L222.021 323.207L221.366 324.612C222.059 324.31 222.793 324.174 223.57 324.205C224.361 324.243 225.15 324.445 225.935 324.812C226.796 325.213 227.493 325.749 228.026 326.421C228.566 327.077 228.896 327.829 229.016 328.675C229.81 328.274 230.666 328.075 231.583 328.08C232.515 328.091 233.435 328.309 234.341 328.731ZM254.237 338.229L248.553 350.419L245.199 348.856L245.875 347.406C245.161 347.716 244.412 347.863 243.628 347.847C242.852 347.816 242.086 347.625 241.331 347.272C239.73 346.526 238.676 345.473 238.169 344.115C237.662 342.757 237.831 341.172 238.676 339.359L241.888 332.471L245.423 334.12L242.454 340.486C241.538 342.45 241.904 343.816 243.55 344.583C244.396 344.978 245.203 345.023 245.97 344.719C246.744 344.399 247.385 343.696 247.892 342.608L250.702 336.581L254.237 338.229ZM266.136 351.253C266.114 351.299 265.944 351.605 265.624 352.173L256.402 347.873C256.216 348.706 256.331 349.486 256.746 350.213C257.161 350.939 257.829 351.518 258.75 351.947C259.385 352.243 259.986 352.413 260.554 352.457C261.144 352.493 261.745 352.406 262.359 352.195L263.288 355.112C261.527 355.89 259.544 355.766 257.339 354.737C255.964 354.096 254.872 353.265 254.061 352.243C253.257 351.206 252.79 350.078 252.66 348.859C252.53 347.64 252.746 346.426 253.31 345.217C253.866 344.024 254.646 343.082 255.648 342.391C256.673 341.692 257.8 341.307 259.028 341.236C260.279 341.157 261.516 341.403 262.739 341.974C263.932 342.53 264.893 343.29 265.62 344.255C266.347 345.219 266.757 346.311 266.85 347.532C266.965 348.744 266.727 349.985 266.136 351.253ZM261.515 344.658C260.714 344.284 259.937 344.198 259.182 344.397C258.426 344.597 257.805 345.061 257.318 345.79L263.323 348.59C263.561 347.763 263.514 346.997 263.181 346.29C262.856 345.568 262.301 345.024 261.515 344.658ZM273.054 341.377L276.589 343.025L268.749 359.837L265.215 358.189L273.054 341.377ZM287.895 368.765L286.896 362.92L286.715 362.836L283.52 361.346L281.46 365.764L277.789 364.053L285.185 348.192L292.05 351.394C293.455 352.049 294.562 352.85 295.371 353.797C296.195 354.751 296.685 355.789 296.843 356.911C297 358.032 296.804 359.182 296.255 360.361C295.705 361.539 294.943 362.425 293.967 363.018C293.014 363.603 291.911 363.879 290.657 363.846L291.837 370.603L287.895 368.765ZM292.539 358.628C292.954 357.737 292.984 356.923 292.629 356.187C292.28 355.436 291.554 354.804 290.452 354.289L287.461 352.895L284.883 358.423L287.874 359.818C288.977 360.332 289.928 360.481 290.727 360.266C291.526 360.05 292.13 359.504 292.539 358.628ZM299.464 374.38C298.18 373.782 297.148 372.979 296.367 371.971C295.609 370.955 295.164 369.838 295.034 368.618C294.904 367.399 295.121 366.185 295.684 364.977C296.248 363.768 297.038 362.822 298.056 362.138C299.074 361.454 300.212 361.084 301.47 361.027C302.751 360.962 304.033 361.229 305.317 361.828C306.601 362.427 307.622 363.234 308.381 364.25C309.146 365.25 309.594 366.36 309.725 367.58C309.855 368.799 309.638 370.013 309.075 371.221C308.511 372.43 307.721 373.376 306.703 374.06C305.685 374.744 304.543 375.122 303.278 375.193C302.019 375.25 300.748 374.979 299.464 374.38ZM300.816 371.48C301.723 371.903 302.604 371.946 303.46 371.609C304.337 371.265 305.016 370.579 305.495 369.552C305.974 368.525 306.06 367.572 305.752 366.693C305.467 365.806 304.871 365.151 303.965 364.728C303.059 364.306 302.167 364.267 301.289 364.611C300.418 364.941 299.743 365.619 299.264 366.646C298.785 367.673 298.696 368.634 298.996 369.528C299.303 370.407 299.91 371.058 300.816 371.48ZM328.398 367.184L320.558 383.996L317.183 382.422L317.838 381.017C316.468 381.666 314.953 381.603 313.291 380.828C312.143 380.293 311.221 379.55 310.524 378.6C309.842 377.657 309.459 376.586 309.374 375.388C309.289 374.19 309.539 372.964 310.123 371.71C310.708 370.456 311.486 369.477 312.459 368.772C313.431 368.067 314.498 367.672 315.659 367.588C316.835 367.511 317.997 367.741 319.145 368.276C320.701 369.001 321.688 370.059 322.106 371.45L324.863 365.536L328.398 367.184ZM315.256 378.213C316.147 378.629 317.028 378.672 317.899 378.342C318.777 377.998 319.455 377.312 319.934 376.285C320.413 375.258 320.499 374.305 320.191 373.426C319.891 372.532 319.295 371.877 318.404 371.461C317.498 371.039 316.606 371 315.728 371.344C314.857 371.674 314.182 372.352 313.703 373.379C313.224 374.406 313.135 375.367 313.435 376.261C313.742 377.14 314.349 377.791 315.256 378.213ZM331.687 376.304C332.384 375.912 333.159 375.73 334.009 375.759C334.875 375.795 335.777 376.031 336.713 376.468L335.192 379.731C334.813 379.518 334.556 379.379 334.42 379.316C333.408 378.844 332.481 378.761 331.639 379.067C330.805 379.359 330.123 380.071 329.595 381.204L326.911 386.959L323.377 385.31L329.061 373.121L332.437 374.695L331.687 376.304ZM338.277 377.418L341.812 379.066L336.128 391.256L332.593 389.608L338.277 377.418ZM340.837 376.543C340.187 376.24 339.747 375.805 339.515 375.237C339.283 374.669 339.298 374.106 339.558 373.547C339.819 372.988 340.241 372.615 340.825 372.427C341.409 372.24 342.026 372.298 342.675 372.601C343.325 372.903 343.769 373.331 344.008 373.884C344.246 374.437 344.239 374.985 343.986 375.529C343.711 376.118 343.278 376.514 342.687 376.716C342.103 376.904 341.486 376.846 340.837 376.543ZM357.214 386.249L352.481 396.399C351.438 398.635 350.082 400.025 348.412 400.57C346.741 401.116 344.789 400.867 342.553 399.825C341.375 399.275 340.324 398.61 339.4 397.83C338.477 397.05 337.794 396.226 337.353 395.359L339.941 393.476C340.258 394.138 340.752 394.774 341.425 395.382C342.091 396.005 342.816 396.499 343.602 396.866C344.825 397.436 345.854 397.576 346.689 397.284C347.532 397.015 348.214 396.322 348.735 395.204L348.978 394.683C347.584 395.265 346.065 395.173 344.418 394.405C343.3 393.884 342.386 393.163 341.675 392.243C340.986 391.315 340.577 390.278 340.449 389.134C340.321 387.989 340.528 386.835 341.07 385.672C341.613 384.509 342.363 383.608 343.323 382.971C344.282 382.333 345.335 381.987 346.482 381.934C347.651 381.872 348.794 382.102 349.912 382.623C351.679 383.447 352.753 384.656 353.132 386.248L353.861 384.685L357.214 386.249ZM346.473 391.832C347.409 392.269 348.299 392.353 349.142 392.084C350.006 391.807 350.647 391.222 351.062 390.331C351.478 389.44 351.51 388.582 351.16 387.756C350.831 386.923 350.199 386.287 349.262 385.851C348.326 385.414 347.425 385.334 346.56 385.611C345.702 385.873 345.066 386.45 344.65 387.341C344.235 388.232 344.199 389.098 344.542 389.939C344.893 390.765 345.536 391.396 346.473 391.832ZM372.331 393.298L366.647 405.488L363.294 403.924L363.97 402.474C363.255 402.784 362.506 402.931 361.723 402.916C360.946 402.885 360.18 402.693 359.425 402.341C357.824 401.594 356.77 400.542 356.263 399.184C355.756 397.826 355.926 396.24 356.771 394.428L359.983 387.54L363.517 389.188L360.548 395.555C359.633 397.518 359.998 398.884 361.645 399.652C362.49 400.046 363.297 400.091 364.064 399.787C364.838 399.468 365.479 398.764 365.986 397.677L368.797 391.65L372.331 393.298ZM384.23 406.322C384.209 406.367 384.038 406.674 383.718 407.242L374.497 402.941C374.31 403.774 374.425 404.554 374.84 405.281C375.255 406.008 375.923 406.586 376.845 407.016C377.479 407.311 378.08 407.481 378.648 407.526C379.238 407.562 379.84 407.474 380.453 407.264L381.383 410.18C379.622 410.959 377.639 410.834 375.433 409.806C374.059 409.165 372.966 408.333 372.155 407.311C371.352 406.275 370.885 405.147 370.754 403.927C370.624 402.708 370.841 401.494 371.404 400.286C371.961 399.092 372.74 398.15 373.743 397.459C374.768 396.76 375.894 396.375 377.122 396.304C378.373 396.226 379.61 396.471 380.834 397.042C382.027 397.598 382.987 398.359 383.714 399.323C384.442 400.287 384.852 401.38 384.945 402.6C385.06 403.812 384.822 405.053 384.23 406.322ZM379.609 399.726C378.809 399.353 378.031 399.266 377.276 399.465C376.521 399.665 375.9 400.129 375.413 400.858L381.417 403.658C381.655 402.832 381.608 402.065 381.276 401.358C380.95 400.636 380.395 400.092 379.609 399.726ZM394.504 415.167L393.236 417.886L382.36 412.815L383.353 410.685L392.985 406.239L386.935 403.418L388.203 400.699L398.716 405.601L397.723 407.731L388.091 412.177L394.504 415.167Z" fill="url(#paint8_linear_8_6)" shape-rendering="crispEdges"/>
</g>
<g id="3Pay" filter="url(#filter3_d_8_6)">
<path d="M306.868 91.8208C308.974 93.2551 310.322 94.9242 310.912 96.8279C311.513 98.7069 311.358 100.625 310.445 102.582C309.741 104.093 308.692 105.308 307.298 106.226C305.916 107.12 304.229 107.57 302.236 107.575C300.267 107.592 298.107 107.052 295.753 105.955C293.92 105.1 292.221 104.021 290.657 102.719C289.13 101.403 287.954 100.011 287.131 98.5415L291.621 95.0254C292.265 96.2307 293.133 97.3442 294.225 98.366C295.353 99.3746 296.599 100.197 297.961 100.832C299.472 101.537 300.794 101.806 301.927 101.641C303.071 101.45 303.892 100.823 304.388 99.7575C305.382 97.6271 304.256 95.8052 301.011 94.292L298.261 93.0098L300.115 89.0338L308.29 85.4721L297.217 80.3085L299.47 75.4779L317.677 83.9683L315.858 87.87L306.868 91.8208ZM333.797 91.4849C336.1 92.5592 337.916 93.873 339.242 95.4265C340.593 96.9915 341.398 98.6937 341.656 100.533C341.914 102.373 341.593 104.258 340.692 106.191C339.802 108.098 338.564 109.557 336.978 110.566C335.403 111.551 333.581 112.028 331.514 111.999C329.483 111.957 327.315 111.399 325.012 110.324L319.772 107.881L316.428 115.053L310.408 112.246L322.537 86.2347L333.797 91.4849ZM326.964 105.263C328.773 106.107 330.327 106.364 331.626 106.035C332.937 105.681 333.928 104.786 334.598 103.349C335.279 101.887 335.328 100.553 334.745 99.3463C334.173 98.1146 332.983 97.0771 331.175 96.2338L326.27 93.9466L322.059 102.976L326.964 105.263ZM353.452 107.617C356.549 109.061 358.58 110.913 359.547 113.173C360.525 115.409 360.321 118.013 358.935 120.986L353.615 132.393L348.19 129.864L349.351 127.374C347.395 128.724 344.93 128.705 341.958 127.319C340.422 126.603 339.205 125.719 338.308 124.668C337.436 123.628 336.917 122.511 336.749 121.317C336.582 120.123 336.77 118.944 337.313 117.78C338.179 115.922 339.555 114.784 341.439 114.365C343.347 113.958 345.763 114.437 348.686 115.8L353.294 117.948C353.883 116.685 353.95 115.54 353.494 114.513C353.049 113.461 352.059 112.577 350.523 111.861C349.458 111.364 348.324 111.047 347.122 110.908C345.956 110.757 344.881 110.798 343.897 111.033L343.705 106.012C345.153 105.753 346.731 105.765 348.438 106.048C350.171 106.343 351.842 106.866 353.452 107.617ZM345.226 124.093C346.217 124.555 347.2 124.743 348.176 124.655C349.164 124.542 350.026 124.115 350.764 123.373L351.717 121.33L347.741 119.476C345.363 118.367 343.81 118.593 343.082 120.153C342.736 120.896 342.744 121.624 343.105 122.335C343.504 123.034 344.21 123.62 345.226 124.093ZM386.921 123.586L367.997 140.593C366.006 142.469 364.11 143.56 362.309 143.866C360.532 144.184 358.69 143.898 356.782 143.008C355.742 142.523 354.789 141.883 353.923 141.087C353.058 140.292 352.436 139.459 352.058 138.589L356.099 135.452C356.36 136.056 356.723 136.602 357.189 137.091C357.68 137.591 358.21 137.974 358.78 138.24C359.573 138.609 360.309 138.712 360.989 138.546C361.658 138.406 362.398 137.982 363.211 137.275L363.372 137.124L364.105 112.947L370.088 115.736L369.374 131.916L381.347 120.986L386.921 123.586Z" fill="white"/>
<path d="M306.868 91.8208L306.063 89.9898L302.759 91.4419L305.742 93.4738L306.868 91.8208ZM310.912 96.8279L309.001 97.42L309.004 97.4289L309.007 97.4378L310.912 96.8279ZM307.298 106.226L308.384 107.906L308.392 107.901L308.399 107.896L307.298 106.226ZM302.236 107.575L302.23 105.575L302.218 105.575L302.236 107.575ZM290.657 102.719L289.352 104.235L289.365 104.245L289.378 104.256L290.657 102.719ZM287.131 98.5415L285.898 96.9669L284.549 98.0235L285.386 99.5186L287.131 98.5415ZM291.621 95.0254L293.385 94.0825L292.262 91.9829L290.388 93.4509L291.621 95.0254ZM294.225 98.366L292.859 99.8263L292.875 99.8418L292.892 99.857L294.225 98.366ZM301.927 101.641L302.216 103.62L302.235 103.617L302.255 103.614L301.927 101.641ZM298.261 93.0098L296.448 92.1645L295.603 93.9771L297.416 94.8224L298.261 93.0098ZM300.115 89.0338L299.316 87.2003L298.622 87.5026L298.302 88.1886L300.115 89.0338ZM308.29 85.4721L309.089 87.3056L313.155 85.534L309.135 83.6595L308.29 85.4721ZM297.217 80.3085L295.404 79.4633L294.559 81.2759L296.372 82.1211L297.217 80.3085ZM299.47 75.4779L300.315 73.6653L298.502 72.8201L297.657 74.6327L299.47 75.4779ZM317.677 83.9683L319.49 84.8135L320.335 83.0009L318.522 82.1557L317.677 83.9683ZM315.858 87.87L316.663 89.7009L317.352 89.3979L317.67 88.7152L315.858 87.87ZM305.742 93.4738C307.579 94.7254 308.579 96.0565 309.001 97.42L312.822 96.2358C312.065 93.7918 310.368 91.7849 307.994 90.1678L305.742 93.4738ZM309.007 97.4378C309.44 98.7903 309.354 100.189 308.633 101.737L312.258 103.427C313.361 101.061 313.587 98.6234 312.816 96.218L309.007 97.4378ZM308.633 101.737C308.085 102.912 307.282 103.841 306.197 104.556L308.399 107.896C310.101 106.774 311.397 105.274 312.258 103.427L308.633 101.737ZM306.212 104.547C305.214 105.192 303.921 105.571 302.23 105.575L302.241 109.575C304.536 109.569 306.618 109.048 308.384 107.906L306.212 104.547ZM302.218 105.575C300.627 105.589 298.764 105.152 296.598 104.142L294.908 107.767C297.449 108.952 299.908 109.596 302.253 109.575L302.218 105.575ZM296.598 104.142C294.922 103.361 293.37 102.375 291.937 101.182L289.378 104.256C291.073 105.668 292.918 106.839 294.908 107.767L296.598 104.142ZM291.962 101.203C290.578 100.011 289.565 98.7942 288.877 97.5644L285.386 99.5186C286.343 101.228 287.681 102.796 289.352 104.235L291.962 101.203ZM288.365 100.116L292.854 96.6L290.388 93.4509L285.898 96.9669L288.365 100.116ZM289.857 95.9684C290.614 97.3839 291.622 98.6689 292.859 99.8263L295.592 96.9058C294.645 96.0195 293.917 95.0774 293.385 94.0825L289.857 95.9684ZM292.892 99.857C294.165 100.995 295.575 101.926 297.116 102.645L298.806 99.0193C297.623 98.4673 296.541 97.754 295.558 96.875L292.892 99.857ZM297.116 102.645C298.828 103.443 300.558 103.862 302.216 103.62L301.638 99.6617C301.03 99.7505 300.117 99.6303 298.806 99.0193L297.116 102.645ZM302.255 103.614C304.06 103.314 305.43 102.256 306.201 100.603L302.576 98.9123C302.353 99.3893 302.082 99.5874 301.599 99.6678L302.255 103.614ZM306.201 100.603C306.95 98.9975 306.947 97.2892 305.99 95.7419C305.127 94.344 303.619 93.3016 301.856 92.4794L300.166 96.1046C301.647 96.7956 302.326 97.4208 302.588 97.8447C302.757 98.1193 302.821 98.3871 302.576 98.9123L306.201 100.603ZM301.856 92.4794L299.106 91.1971L297.416 94.8224L300.166 96.1046L301.856 92.4794ZM300.074 93.855L301.928 89.879L298.302 88.1886L296.448 92.1645L300.074 93.855ZM300.914 90.8673L309.089 87.3056L307.491 83.6385L299.316 87.2003L300.914 90.8673ZM309.135 83.6595L298.062 78.4959L296.372 82.1211L307.445 87.2847L309.135 83.6595ZM299.03 81.1538L301.282 76.3231L297.657 74.6327L295.404 79.4633L299.03 81.1538ZM298.624 77.2905L316.832 85.7809L318.522 82.1557L300.315 73.6653L298.624 77.2905ZM315.865 83.1231L314.045 87.0247L317.67 88.7152L319.49 84.8135L315.865 83.1231ZM315.053 86.039L306.063 89.9898L307.673 93.6518L316.663 89.7009L315.053 86.039ZM339.242 95.4265L337.721 96.7252L337.728 96.7335L339.242 95.4265ZM336.978 110.566L338.038 112.262L338.044 112.258L338.051 112.253L336.978 110.566ZM331.514 111.999L331.472 113.999L331.486 113.999L331.514 111.999ZM319.772 107.881L320.617 106.069L318.805 105.223L317.96 107.036L319.772 107.881ZM316.428 115.053L315.583 116.865L317.395 117.711L318.241 115.898L316.428 115.053ZM310.408 112.246L308.596 111.4L307.75 113.213L309.563 114.058L310.408 112.246ZM322.537 86.2347L323.383 84.4221L321.57 83.5768L320.725 85.3894L322.537 86.2347ZM331.626 106.035L332.117 107.974L332.132 107.97L332.147 107.966L331.626 106.035ZM334.745 99.3463L332.931 100.188L332.938 100.202L332.944 100.216L334.745 99.3463ZM326.27 93.9466L327.115 92.134L325.303 91.2888L324.457 93.1014L326.27 93.9466ZM322.059 102.976L320.247 102.131L319.402 103.944L321.214 104.789L322.059 102.976ZM332.951 93.2975C335.057 94.2795 336.62 95.4358 337.721 96.7252L340.763 94.1278C339.211 92.3102 337.143 90.8388 334.642 89.6722L332.951 93.2975ZM337.728 96.7335C338.857 98.0415 339.477 99.3946 339.675 100.811L343.637 100.255C343.319 97.9928 342.329 95.9414 340.756 94.1195L337.728 96.7335ZM339.675 100.811C339.872 102.214 339.641 103.71 338.879 105.345L342.504 107.036C343.544 104.806 343.956 102.532 343.637 100.255L339.675 100.811ZM338.879 105.345C338.131 106.95 337.132 108.098 335.904 108.879L338.051 112.253C339.997 111.016 341.474 109.246 342.504 107.036L338.879 105.345ZM335.917 108.87C334.705 109.628 333.27 110.024 331.542 109.999L331.486 113.999C333.893 114.033 336.101 113.473 338.038 112.262L335.917 108.87ZM331.556 110C329.863 109.964 327.97 109.497 325.857 108.512L324.166 112.137C326.661 113.3 329.103 113.949 331.472 113.999L331.556 110ZM325.857 108.512L320.617 106.069L318.927 109.694L324.166 112.137L325.857 108.512ZM317.96 107.036L314.615 114.207L318.241 115.898L321.585 108.726L317.96 107.036ZM317.273 113.24L311.254 110.433L309.563 114.058L315.583 116.865L317.273 113.24ZM312.221 113.091L324.35 87.0799L320.725 85.3894L308.596 111.4L312.221 113.091ZM321.692 88.0473L332.951 93.2975L334.642 89.6722L323.383 84.4221L321.692 88.0473ZM326.119 107.076C328.149 108.022 330.198 108.459 332.117 107.974L331.135 104.096C330.455 104.268 329.397 104.191 327.81 103.451L326.119 107.076ZM332.147 107.966C334.126 107.432 335.537 106.066 336.41 104.194L332.785 102.504C332.318 103.505 331.748 103.93 331.105 104.104L332.147 107.966ZM336.41 104.194C337.289 102.31 337.444 100.335 336.546 98.476L332.944 100.216C333.213 100.772 333.27 101.464 332.785 102.504L336.41 104.194ZM336.559 98.5042C335.714 96.6836 334.061 95.3728 332.02 94.4212L330.33 98.0465C331.906 98.7814 332.633 99.5455 332.931 100.188L336.559 98.5042ZM332.02 94.4212L327.115 92.134L325.425 95.7593L330.33 98.0465L332.02 94.4212ZM324.457 93.1014L320.247 102.131L323.872 103.821L328.083 94.7919L324.457 93.1014ZM321.214 104.789L326.119 107.076L327.81 103.451L322.905 101.164L321.214 104.789ZM359.547 113.173L357.708 113.96L357.711 113.968L357.715 113.975L359.547 113.173ZM353.615 132.393L352.77 134.206L354.583 135.051L355.428 133.239L353.615 132.393ZM348.19 129.864L346.378 129.018L345.532 130.831L347.345 131.676L348.19 129.864ZM349.351 127.374L351.164 128.219L354.275 121.547L348.215 125.728L349.351 127.374ZM338.308 124.668L336.776 125.953L336.781 125.959L336.787 125.965L338.308 124.668ZM336.749 121.317L338.73 121.04L338.73 121.04L336.749 121.317ZM341.439 114.365L341.022 112.409L341.013 112.411L341.005 112.413L341.439 114.365ZM353.294 117.948L352.449 119.761L354.261 120.606L355.107 118.794L353.294 117.948ZM353.494 114.513L351.651 115.291L351.659 115.308L351.666 115.325L353.494 114.513ZM347.122 110.908L346.864 112.892L346.879 112.893L346.893 112.895L347.122 110.908ZM343.897 111.033L341.899 111.11L341.992 113.544L344.361 112.978L343.897 111.033ZM343.705 106.012L343.352 104.044L341.64 104.351L341.706 106.089L343.705 106.012ZM348.438 106.048L348.774 104.077L348.766 104.075L348.438 106.048ZM348.176 124.655L348.356 126.647L348.379 126.645L348.403 126.642L348.176 124.655ZM350.764 123.373L352.182 124.784L352.429 124.536L352.577 124.219L350.764 123.373ZM351.717 121.33L353.53 122.175L354.375 120.362L352.563 119.517L351.717 121.33ZM343.105 122.335L341.323 123.242L341.344 123.285L341.368 123.326L343.105 122.335ZM352.607 109.43C355.431 110.747 356.999 112.302 357.708 113.96L361.386 112.387C360.161 109.524 357.666 107.375 354.297 105.804L352.607 109.43ZM357.715 113.975C358.391 115.52 358.354 117.5 357.122 120.141L360.748 121.831C362.289 118.526 362.66 115.298 361.379 112.372L357.715 113.975ZM357.122 120.141L351.803 131.548L355.428 133.239L360.748 121.831L357.122 120.141ZM354.461 130.581L349.035 128.051L347.345 131.676L352.77 134.206L354.461 130.581ZM350.003 130.709L351.164 128.219L347.539 126.529L346.378 129.018L350.003 130.709ZM348.215 125.728C347.055 126.528 345.406 126.721 342.803 125.507L341.112 129.132C344.454 130.69 347.734 130.919 350.487 129.02L348.215 125.728ZM342.803 125.507C341.469 124.885 340.504 124.16 339.83 123.37L336.787 125.965C337.907 127.279 339.374 128.321 341.112 129.132L342.803 125.507ZM339.841 123.382C339.178 122.593 338.839 121.817 338.73 121.04L334.769 121.594C334.994 123.205 335.694 124.663 336.776 125.953L339.841 123.382ZM338.73 121.04C338.62 120.254 338.735 119.463 339.126 118.625L335.5 116.934C334.806 118.425 334.544 119.992 334.769 121.594L338.73 121.04ZM339.126 118.625C339.748 117.29 340.637 116.592 341.872 116.318L341.005 112.413C338.472 112.975 336.611 114.554 335.5 116.934L339.126 118.625ZM341.855 116.321C343.141 116.047 345.077 116.323 347.841 117.612L349.532 113.987C346.45 112.55 343.554 111.87 341.022 112.409L341.855 116.321ZM347.841 117.612L352.449 119.761L354.139 116.136L349.532 113.987L347.841 117.612ZM355.107 118.794C355.877 117.143 356.067 115.38 355.322 113.701L351.666 115.325C351.832 115.699 351.89 116.227 351.481 117.103L355.107 118.794ZM355.336 113.734C354.624 112.049 353.141 110.875 351.368 110.048L349.678 113.674C350.977 114.279 351.475 114.874 351.651 115.291L355.336 113.734ZM351.368 110.048C350.103 109.458 348.76 109.084 347.351 108.921L346.893 112.895C347.888 113.01 348.813 113.27 349.678 113.674L351.368 110.048ZM347.38 108.925C346.012 108.747 344.688 108.788 343.433 109.088L344.361 112.978C345.074 112.808 345.901 112.766 346.864 112.892L347.38 108.925ZM345.896 110.957L345.704 105.936L341.706 106.089L341.899 111.11L345.896 110.957ZM344.058 107.981C345.245 107.768 346.59 107.769 348.111 108.021L348.766 104.075C346.872 103.761 345.061 103.737 343.352 104.044L344.058 107.981ZM348.103 108.02C349.657 108.285 351.157 108.754 352.607 109.43L354.297 105.804C352.527 104.979 350.685 104.402 348.774 104.077L348.103 108.02ZM344.381 125.906C345.654 126.499 346.989 126.77 348.356 126.647L347.997 122.663C347.412 122.715 346.781 122.611 346.071 122.281L344.381 125.906ZM348.403 126.642C349.866 126.475 351.142 125.829 352.182 124.784L349.347 121.963C348.911 122.401 348.461 122.609 347.95 122.668L348.403 126.642ZM352.577 124.219L353.53 122.175L349.905 120.484L348.952 122.528L352.577 124.219ZM352.563 119.517L348.587 117.663L346.896 121.288L350.872 123.142L352.563 119.517ZM348.587 117.663C347.257 117.043 345.848 116.639 344.505 116.834C342.989 117.055 341.886 117.987 341.27 119.308L344.895 120.999C344.933 120.918 344.965 120.869 344.985 120.842C344.996 120.828 345.004 120.82 345.008 120.815C345.013 120.81 345.016 120.808 345.016 120.808C345.017 120.807 345.016 120.808 345.015 120.808C345.014 120.809 345.015 120.808 345.017 120.808C345.02 120.806 345.039 120.799 345.081 120.793C345.291 120.762 345.848 120.799 346.896 121.288L348.587 117.663ZM341.27 119.308C340.672 120.591 340.673 121.965 341.323 123.242L344.888 121.429C344.833 121.32 344.828 121.262 344.828 121.235C344.828 121.207 344.832 121.134 344.895 120.999L341.27 119.308ZM341.368 123.326C342.038 124.501 343.134 125.324 344.381 125.906L346.071 122.281C345.287 121.915 344.969 121.567 344.843 121.345L341.368 123.326ZM386.921 123.586L388.257 125.073L390.507 123.051L387.766 121.773L386.921 123.586ZM367.997 140.593L366.66 139.105L366.643 139.121L366.625 139.137L367.997 140.593ZM362.309 143.866L361.974 141.895L361.965 141.896L361.957 141.897L362.309 143.866ZM353.923 141.087L355.277 139.615L353.923 141.087ZM352.058 138.589L350.831 137.009L349.604 137.961L350.224 139.386L352.058 138.589ZM356.099 135.452L357.935 134.658L356.911 132.289L354.873 133.872L356.099 135.452ZM357.189 137.091L355.742 138.471L355.751 138.481L355.761 138.491L357.189 137.091ZM360.989 138.546L360.578 136.589L360.547 136.595L360.517 136.603L360.989 138.546ZM363.211 137.275L364.524 138.784L364.552 138.759L364.58 138.733L363.211 137.275ZM363.372 137.124L364.741 138.582L365.346 138.014L365.371 137.184L363.372 137.124ZM364.105 112.947L364.95 111.134L362.198 109.851L362.106 112.886L364.105 112.947ZM370.088 115.736L372.086 115.824L372.145 114.489L370.933 113.924L370.088 115.736ZM369.374 131.916L367.376 131.828L367.164 136.641L370.722 133.393L369.374 131.916ZM381.347 120.986L382.192 119.174L380.983 118.61L379.998 119.509L381.347 120.986ZM385.584 122.098L366.66 139.105L369.334 142.08L388.257 125.073L385.584 122.098ZM366.625 139.137C364.787 140.869 363.237 141.68 361.974 141.895L362.644 145.838C364.983 145.441 367.225 144.069 369.369 142.048L366.625 139.137ZM361.957 141.897C360.65 142.131 359.226 141.941 357.628 141.196L355.937 144.821C358.154 145.855 360.414 146.237 362.66 145.835L361.957 141.897ZM357.628 141.196C356.777 140.799 355.995 140.275 355.277 139.615L352.57 142.56C353.583 143.491 354.706 144.247 355.937 144.821L357.628 141.196ZM355.277 139.615C354.569 138.964 354.135 138.352 353.892 137.791L350.224 139.386C350.736 140.566 351.547 141.619 352.57 142.56L355.277 139.615ZM353.284 140.168L357.325 137.032L354.873 133.872L350.831 137.009L353.284 140.168ZM354.263 136.245C354.62 137.072 355.117 137.816 355.742 138.471L358.637 135.711C358.33 135.389 358.1 135.04 357.935 134.658L354.263 136.245ZM355.761 138.491C356.401 139.143 357.124 139.674 357.935 140.052L359.625 136.427C359.296 136.274 358.959 136.039 358.617 135.691L355.761 138.491ZM357.935 140.052C359.034 140.565 360.239 140.787 361.462 140.49L360.517 136.603C360.379 136.636 360.111 136.654 359.625 136.427L357.935 140.052ZM361.401 140.504C362.542 140.264 363.588 139.598 364.524 138.784L361.898 135.766C361.209 136.366 360.774 136.548 360.578 136.589L361.401 140.504ZM364.58 138.733L364.741 138.582L362.003 135.666L361.842 135.817L364.58 138.733ZM365.371 137.184L366.104 113.007L362.106 112.886L361.373 137.063L365.371 137.184ZM363.26 114.759L369.242 117.549L370.933 113.924L364.95 111.134L363.26 114.759ZM368.09 115.648L367.376 131.828L371.372 132.004L372.086 115.824L368.09 115.648ZM370.722 133.393L382.695 122.464L379.998 119.509L368.026 130.439L370.722 133.393ZM380.501 122.799L386.075 125.398L387.766 121.773L382.192 119.174L380.501 122.799Z" fill="#676767"/>
</g>
<circle id="Ellipse 4" cx="93.8614" cy="565.164" r="19.5" transform="rotate(25 93.8614 565.164)" stroke="url(#paint9_linear_8_6)"/>
<circle id="Ellipse 5" cx="117.425" cy="576.152" r="19.5" transform="rotate(25 117.425 576.152)" stroke="url(#paint10_linear_8_6)"/>
</g>
</g>
<defs>
<filter id="filter0_b_8_6" x="-31.0166" y="-30.9942" width="716.033" height="835.988" filterUnits="userSpaceOnUse" color-interpolation-filters="sRGB">
<feFlood flood-opacity="0" result="BackgroundImageFix"/>
<feGaussianBlur in="BackgroundImage" stdDeviation="21"/>
<feComposite in2="SourceAlpha" operator="in" result="effect1_backgroundBlur_8_6"/>
<feBlend mode="normal" in="SourceGraphic" in2="effect1_backgroundBlur_8_6" result="shape"/>
</filter>
<filter id="filter1_d_8_6" x="160.834" y="359.323" width="292.599" height="151.112" filterUnits="userSpaceOnUse" color-interpolation-filters="sRGB">
<feFlood flood-opacity="0" result="BackgroundImageFix"/>
<feColorMatrix in="SourceAlpha" type="matrix" values="0 0 0 0 0 0 0 0 0 0 0 0 0 0 0 0 0 0 127 0" result="hardAlpha"/>
<feOffset dx="2" dy="3"/>
<feGaussianBlur stdDeviation="1.5"/>
<feComposite in2="hardAlpha" operator="out"/>
<feColorMatrix type="matrix" values="0 0 0 0 0.604167 0 0 0 0 0.54375 0 0 0 0 0.54375 0 0 0 0.71 0"/>
<feBlend mode="normal" in2="BackgroundImageFix" result="effect1_dropShadow_8_6"/>
<feBlend mode="normal" in="SourceGraphic" in2="effect1_dropShadow_8_6" result="shape"/>
</filter>
<filter id="filter2_d_8_6" x="181.304" y="302.691" width="225.247" height="125.773" filterUnits="userSpaceOnUse" color-interpolation-filters="sRGB">
<feFlood flood-opacity="0" result="BackgroundImageFix"/>
<feColorMatrix in="SourceAlpha" type="matrix" values="0 0 0 0 0 0 0 0 0 0 0 0 0 0 0 0 0 0 127 0" result="hardAlpha"/>
<feOffset dx="2" dy="3"/>
<feGaussianBlur stdDeviation="1.5"/>
<feComposite in2="hardAlpha" operator="out"/>
<feColorMatrix type="matrix" values="0 0 0 0 0.604167 0 0 0 0 0.54375 0 0 0 0 0.54375 0 0 0 0.71 0"/>
<feBlend mode="normal" in2="BackgroundImageFix" result="effect1_dropShadow_8_6"/>
<feBlend mode="normal" in="SourceGraphic" in2="effect1_dropShadow_8_6" result="shape"/>
</filter>
<filter id="filter3_d_8_6" x="278.54" y="72.8714" width="115.188" height="84.2115" filterUnits="userSpaceOnUse" color-interpolation-filters="sRGB">
<feFlood flood-opacity="0" result="BackgroundImageFix"/>
<feColorMatrix in="SourceAlpha" type="matrix" values="0 0 0 0 0 0 0 0 0 0 0 0 0 0 0 0 0 0 127 0" result="hardAlpha"/>
<feOffset dy="2"/>
<feGaussianBlur stdDeviation="2"/>
<feComposite in2="hardAlpha" operator="out"/>
<feColorMatrix type="matrix" values="0 0 0 0 0 0 0 0 0 0 0 0 0 0 0 0 0 0 0.25 0"/>
<feBlend mode="normal" in2="BackgroundImageFix" result="effect1_dropShadow_8_6"/>
<feBlend mode="normal" in="SourceGraphic" in2="effect1_dropShadow_8_6" result="shape"/>
</filter>
<radialGradient id="paint0_radial_8_6" cx="0" cy="0" r="1" gradientUnits="userSpaceOnUse" gradientTransform="translate(443 699) rotate(90) scale(149)">
<stop stop-color="#FF5353"/>
<stop offset="1" stop-color="#FF7020"/>
</radialGradient>
<radialGradient id="paint1_radial_8_6" cx="0" cy="0" r="1" gradientUnits="userSpaceOnUse" gradientTransform="translate(200.5 107.5) rotate(90) scale(106.5)">
<stop stop-color="#6B53FF"/>
<stop offset="1" stop-color="#8F20FF"/>
</radialGradient>
<radialGradient id="paint2_radial_8_6" cx="0" cy="0" r="1" gradientUnits="userSpaceOnUse" gradientTransform="translate(624.5 137.5) rotate(90) scale(106.5)">
<stop stop-color="#FFEE53"/>
<stop offset="0.703125" stop-color="#FF9D35"/>
<stop offset="1" stop-color="#FF6320"/>
</radialGradient>
<linearGradient id="paint3_linear_8_6" x1="279.765" y1="0.859051" x2="725.265" y2="708.359" gradientUnits="userSpaceOnUse">
<stop stop-color="white" stop-opacity="0.4"/>
<stop offset="1" stop-color="white" stop-opacity="0"/>
</linearGradient>
<radialGradient id="paint4_radial_8_6" cx="0" cy="0" r="1" gradientUnits="userSpaceOnUse" gradientTransform="translate(627.765 554.359) rotate(-116.989) scale(423.076 264.102)">
<stop stop-color="#E64467"/>
<stop offset="1" stop-color="white" stop-opacity="0.29"/>
</radialGradient>
<radialGradient id="paint5_radial_8_6" cx="0" cy="0" r="1" gradientUnits="userSpaceOnUse" gradientTransform="translate(666.765 58.3591) rotate(131.607) scale(179.212 268.503)">
<stop stop-color="#FFB53E"/>
<stop offset="1" stop-color="white" stop-opacity="0"/>
</radialGradient>
<radialGradient id="paint6_radial_8_6" cx="0" cy="0" r="1" gradientUnits="userSpaceOnUse" gradientTransform="translate(246.265 157.859) rotate(51.8465) scale(433.009 270.302)">
<stop stop-color="#8036FF"/>
<stop offset="0.450361" stop-color="#5D27BA" stop-opacity="0.728225"/>
<stop offset="1" stop-opacity="0"/>
</radialGradient>
<linearGradient id="paint7_linear_8_6" x1="142.072" y1="364.762" x2="529.711" y2="461.504" gradientUnits="userSpaceOnUse">
<stop stop-color="white"/>
<stop offset="0.417778" stop-color="white" stop-opacity="0.876462"/>
<stop offset="1" stop-color="white" stop-opacity="0"/>
</linearGradient>
<linearGradient id="paint8_linear_8_6" x1="166.161" y1="313.103" x2="553.801" y2="409.845" gradientUnits="userSpaceOnUse">
<stop stop-color="white"/>
<stop offset="0.417778" stop-color="white" stop-opacity="0.876462"/>
<stop offset="1" stop-color="white" stop-opacity="0"/>
</linearGradient>
<linearGradient id="paint9_linear_8_6" x1="67.0689" y1="536.862" x2="118.767" y2="597.239" gradientUnits="userSpaceOnUse">
<stop stop-color="white"/>
<stop offset="1" stop-color="white" stop-opacity="0"/>
</linearGradient>
<linearGradient id="paint10_linear_8_6" x1="101.954" y1="553.888" x2="138.557" y2="597.284" gradientUnits="userSpaceOnUse">
<stop stop-color="white"/>
<stop offset="1" stop-color="white" stop-opacity="0"/>
</linearGradient>
</defs>
</svg>
